<?xml version="1.0" encoding="utf-8"?>
<!-- Generator: Adobe Illustrator 23.0.3, SVG Export Plug-In . SVG Version: 6.00 Build 0)  -->
<svg version="1.1" baseProfile="tiny" id="Capa_1" xmlns="http://www.w3.org/2000/svg" xmlns:xlink="http://www.w3.org/1999/xlink"
	 x="0px" y="0px" viewBox="0 0 512 512" xml:space="preserve">
<circle fill="#0099DE" cx="256" cy="253" r="248"/>
<rect x="129.4" y="57.7" fill="none" width="306.1" height="372.2"/>
<g>
	<path fill="#FFFFFF" d="M196.9,284.1c-14-0.1-26.2-12.4-26.1-26.2c0.1-14.2,12.7-26.5,26.7-26.2c14,0.3,26.1,12.7,25.9,26.5
		C223.1,272.1,210.7,284.2,196.9,284.1z"/>
	<path fill="#FFFFFF" d="M321.2,231.6c14,0.2,26.1,12.4,26,26.4c-0.1,13.9-12.3,26.1-26.3,26.1c-14.2,0-26.7-12.7-26.3-26.6
		C295.1,243.4,307.3,231.4,321.2,231.6z"/>
	<path fill="#FFFFFF" d="M228.6,229.5c-14.8,0-26-11-26-25.7c0-14.4,11.6-26.3,25.8-26.3c14.2,0,26.1,11.8,26.1,26.1
		C254.5,218.3,243.3,229.5,228.6,229.5z"/>
	<path fill="#FFFFFF" d="M228.5,284.5c14.7,0,26,11.2,26,25.8c0,14.3-11.8,26.1-26.1,26.1c-14.2,0-25.9-11.8-25.9-26.2
		C202.5,295.6,213.7,284.5,228.5,284.5z"/>
	<path fill="#FFFFFF" d="M289.3,229.5c-14.6,0-25.8-11.3-25.8-26c0.1-14.2,12-26,26.2-26c14.2,0.1,25.7,11.9,25.7,26.4
		C315.4,218.6,304.2,229.6,289.3,229.5z"/>
	<path fill="#FFFFFF" d="M289.5,284.5c14.8,0,26,11.1,26,25.8c0,14.4-11.7,26.2-25.9,26.2c-14.2,0-26-11.9-26-26.1
		C263.5,295.7,274.8,284.5,289.5,284.5z"/>
	<path fill="#FFFFFF" d="M333.5,204.7c0-9.6,6.6-16.2,16.3-16.2c9,0,16.3,7,16.5,15.8c0.2,8.8-7.6,16.8-16.4,16.9
		C340.9,221.4,333.6,214,333.5,204.7z"/>
	<path fill="#FFFFFF" d="M258.8,168.5c-9.1,0-16.2-7-16.3-16c-0.1-9.1,7.3-16.7,16.3-16.8c9-0.1,16.5,7.5,16.5,16.6
		C275.5,161.5,268.2,168.5,258.8,168.5z"/>
	<path fill="#FFFFFF" d="M168.7,188.5c9.3,0.1,15.8,6.8,15.8,16.2c0,9.2-7.4,16.6-16.4,16.5c-8.8-0.1-16.6-8.1-16.4-16.9
		C151.8,195.4,159.3,188.5,168.7,188.5z"/>
	<path fill="#FFFFFF" d="M349.3,325.5c-9.3-0.1-15.8-6.8-15.7-16.3c0-9.2,7.5-16.6,16.5-16.5c8.8,0.2,16.5,8.2,16.3,16.9
		C366.1,318.7,358.7,325.6,349.3,325.5z"/>
	<path fill="#FFFFFF" d="M259.1,345.5c9.1,0,16.3,7,16.4,15.9c0.1,9.1-7.2,16.7-16.3,16.9c-8.9,0.1-16.6-7.4-16.6-16.5
		C242.5,352.6,249.7,345.5,259.1,345.5z"/>
	<path fill="#FFFFFF" d="M168.2,325.5c-9.3,0-16.7-7.4-16.6-16.3c0.2-8.7,7.7-16.3,16.3-16.4c9-0.2,16.5,7.3,16.5,16.5
		C184.5,318.9,177.9,325.5,168.2,325.5z"/>
	<path fill="#FFFFFF" d="M380.5,255.8c0.1-7.9,6.1-13.5,14.3-13.3c7.5,0.2,13.7,6.6,13.4,13.9c-0.3,7.5-6.6,13.6-14,13.5
		C386.5,269.9,380.4,263.6,380.5,255.8z"/>
	<path fill="#FFFFFF" d="M326.1,388.5c-8,0-13.7-5.9-13.6-14c0.1-7.5,6.3-13.6,13.8-13.6c7.2,0,13.8,6.5,13.9,13.8
		C340.3,382.2,333.9,388.5,326.1,388.5z"/>
	<path fill="#FFFFFF" d="M191.9,125.5c8,0,13.7,5.9,13.6,14c-0.1,7.4-6.4,13.6-13.8,13.6c-7.2,0-13.8-6.6-13.8-13.8
		C177.8,131.8,184.1,125.5,191.9,125.5z"/>
	<path fill="#FFFFFF" d="M326.3,125.5c7.7,0,14.1,6.5,13.9,14c-0.2,7.3-6.8,13.7-14,13.6c-7.5-0.1-13.6-6.3-13.6-13.8
		C312.5,131.3,318.2,125.5,326.3,125.5z"/>
	<path fill="#FFFFFF" d="M123.8,242.5c7.8,0,13.6,5.7,13.7,13.4c0.1,7.8-6.1,14-13.8,14c-7.6,0-14.1-6.6-13.9-14.1
		C109.9,248.3,116.1,242.5,123.8,242.5z"/>
	<path fill="#FFFFFF" d="M192,388.5c-7.8,0.1-14.1-6.2-14.1-13.8c0-7.2,6.5-13.8,13.8-13.9c7.4-0.1,13.7,6.1,13.9,13.5
		C205.6,382.5,199.9,388.4,192,388.5z"/>
	<path fill="#FFFFFF" d="M114,184.4c-6-0.1-11.2-5.2-11.2-11.1c0-6.1,5.5-11.5,11.5-11.4c6.2,0.2,11.3,5.6,11.1,11.7
		C125.2,179.6,120,184.5,114,184.4z"/>
	<path fill="#FFFFFF" d="M403.9,184.4c-6,0-11.2-4.9-11.3-10.9c-0.2-6.1,5.1-11.5,11.2-11.6c6-0.1,11.5,5.5,11.4,11.5
		C415.1,179.4,410,184.4,403.9,184.4z"/>
	<path fill="#FFFFFF" d="M125.4,340.5c0.1,6.1-5.1,11.5-11.3,11.6c-5.8,0.1-11.1-5.1-11.4-11c-0.2-5.8,4.9-11.2,10.8-11.4
		C119.9,329.3,125.3,334.3,125.4,340.5z"/>
	<path fill="#FFFFFF" d="M404.1,329.6c6,0.1,11.2,5.2,11.2,11.1c0,6-5.6,11.5-11.5,11.4c-6-0.2-11-5.3-11.1-11.2
		C392.5,334.7,397.8,329.5,404.1,329.6z"/>
	<path fill="#FFFFFF" d="M259.1,78.5c6.2,0,11.2,5,11.2,10.9c0,6-5,11-11.2,11c-6.4,0.1-11.6-5.1-11.5-11.2
		C247.8,83.3,252.9,78.5,259.1,78.5z"/>
	<path fill="#FFFFFF" d="M258.6,435.5c-6.1-0.1-11.1-5.3-10.9-11.3c0.2-6,5.3-10.7,11.5-10.7c6.1,0.1,11.2,5.1,11.2,11
		C270.3,430.7,265,435.6,258.6,435.5z"/>
	<path fill="#FFFFFF" d="M166.4,107.5c-5.4,0-9.6-4.3-9.5-9.5c0.1-4.8,4.6-9.2,9.4-9.3c5-0.1,9.7,4.5,9.7,9.5
		C176.1,103.4,171.8,107.5,166.4,107.5z"/>
	<path fill="#FFFFFF" d="M351.4,107.5c-5.4,0-9.6-4.3-9.4-9.5c0.1-4.8,4.6-9.2,9.4-9.3c4.9-0.1,9.7,4.6,9.7,9.5
		C361.1,103.4,356.8,107.5,351.4,107.5z"/>
	<path fill="#FFFFFF" d="M66.5,256.8c0.1-5.3,3.8-9.2,9-9.3c5.2-0.1,9.7,4.2,9.8,9.3c0.1,5.1-4.4,9.5-9.6,9.5
		C70.3,266.5,66.5,262.4,66.5,256.8z"/>
	<path fill="#FFFFFF" d="M451.5,257.1c0,5.5-4.1,9.5-9.4,9.4c-5-0.1-9.3-4.4-9.4-9.3c-0.1-5.1,4.3-9.5,9.5-9.6
		C447.6,247.5,451.5,251.5,451.5,257.1z"/>
	<path fill="#FFFFFF" d="M176,416c-0.1,5-4.9,9.6-9.9,9.4c-4.8-0.2-9.2-4.7-9.3-9.5c0-5.4,4.5-9.6,10.1-9.4
		C172.1,406.8,176.2,411,176,416z"/>
	<path fill="#FFFFFF" d="M351.3,406.5c5.4-0.1,9.7,4,9.7,9.3c0,4.9-4.7,9.6-9.7,9.6c-4.8-0.1-9.3-4.4-9.5-9.2
		C341.8,410.9,346,406.6,351.3,406.5z"/>
</g>
</svg>
