<?xml version="1.0" encoding="utf-8"?>
<!-- Generator: Adobe Illustrator 23.0.3, SVG Export Plug-In . SVG Version: 6.00 Build 0)  -->
<svg version="1.1" baseProfile="tiny" id="Capa_3" xmlns="http://www.w3.org/2000/svg" xmlns:xlink="http://www.w3.org/1999/xlink"
	 x="0px" y="0px" viewBox="0 0 64.9 64.9" xml:space="preserve">
<circle fill-rule="evenodd" fill="#F4B731" cx="32.5" cy="32.5" r="31.8"/>
<path fill-rule="evenodd" fill="#FFFFFF" d="M18.1,14H33c9.1,0,16,4.9,18.5,12h4.6v4.3h-3.7c0.1,0.7,0.1,1.4,0.1,2.1v0.1
	c0,0.8,0,1.6-0.1,2.3h3.7v4.3h-4.7c-2.6,7-9.5,11.8-18.4,11.8H18.1V39.1h-5.2v-4.3h5.2v-4.5h-5.2V26h5.2V14z M22.3,39.1v8H33
	c6.6,0,11.6-3.2,13.9-8H22.3z M48.1,34.8H22.3v-4.5h25.9c0.1,0.7,0.1,1.4,0.1,2.2v0.1C48.3,33.3,48.2,34,48.1,34.8z M33,17.8
	c6.7,0,11.6,3.3,13.9,8.1H22.3v-8.1L33,17.8z"/>
</svg>
