<?xml version="1.0" encoding="utf-8"?>
<!-- Generator: Adobe Illustrator 23.0.3, SVG Export Plug-In . SVG Version: 6.00 Build 0)  -->
<svg version="1.1" baseProfile="tiny" id="Capa_3" xmlns="http://www.w3.org/2000/svg" xmlns:xlink="http://www.w3.org/1999/xlink"
	 x="0px" y="0px" viewBox="0 0 64.9 64.9" xml:space="preserve">
<circle fill="#5173B9" cx="32.5" cy="32.5" r="31"/>
<g>
	<path fill="#FFFFFF" d="M15.5,29.7c-0.2,0-0.3,0.1-0.4,0.3c-0.3,0.8-0.5,1.6-0.8,2.4c-0.3,0.9-0.6,1.7-0.9,2.5c0,0.1,0,0.1,0,0.2
		c0.2,0,0.3,0,0.4-0.1c4.4,0,8.7,0,13,0c0.4,0,0.5-0.1,0.6-0.4c0.5-1.5,1-3,1.5-4.5c0-0.1,0.1-0.3,0.1-0.4c-0.1,0-0.2,0-0.3,0
		C24.3,29.7,19.8,29.7,15.5,29.7z"/>
	<path fill="#FFFFFF" d="M47.3,21.2c-8.4,0-16.8,0-25.2,0c-0.3,0-0.4,0.1-0.5,0.4c-0.5,1.6-1.1,3.2-1.6,4.8c0,0.1-0.1,0.2-0.1,0.4
		c7.8,0,15.5,0,23.3,0c0,0.2-0.1,0.3-0.1,0.4c-1.1,3.5-2.3,7-3.4,10.5c-0.1,0.3-0.3,0.4-0.6,0.4c-7.5,0-14.9,0-22.4,0
		c-0.3,0-0.5,0-0.6,0.4c-0.4,1.4-0.9,2.9-1.4,4.3c-0.1,0.2-0.2,0.5-0.3,0.8c0.2,0,0.3,0,0.5,0c8.2,0,16.5-0.1,24.8,0
		c3.7,0.1,7.1-3.2,7.9-5.7c1.3-4.1,2.6-8.1,3.9-12.1c0-0.4,0-0.8,0-1.2c0-0.1-0.1-0.2-0.1-0.3c-0.3-1.4-1.1-2.4-2.5-2.9
		C48.3,21.4,47.8,21.2,47.3,21.2z"/>
</g>
</svg>
