<?xml version="1.0" encoding="utf-8"?>
<!-- Generator: Adobe Illustrator 23.0.3, SVG Export Plug-In . SVG Version: 6.00 Build 0)  -->
<svg version="1.1" baseProfile="tiny" id="Capa_3" xmlns="http://www.w3.org/2000/svg" xmlns:xlink="http://www.w3.org/1999/xlink"
	 x="0px" y="0px" viewBox="0 0 64.9 64.9" xml:space="preserve">
<g>
	<circle fill="#E8BD35" cx="32.5" cy="32.5" r="31.7"/>
	<path fill="#FFFFFF" d="M14.8,50.3c0-2.8,0-5.6,0-8.4c1.6,0,3.3,0,4.9,0c0-6.4,0-12.8,0-19.2c-1.6,0-3.2,0-4.9,0c0-2.7,0-5.3,0-8.1
		c0.2,0,0.5,0,0.7,0c6.6,0,13.2,0,19.8,0c1.4,0,2.8,0.4,4.1,0.9c2.6,1,4.9,2.5,6.7,4.7c1.6,1.9,2.7,4.1,3.3,6.6
		c1,4.2,1,8.5-0.2,12.7c-1.6,5.5-5,9.2-10.8,10.5c-1,0.2-2.1,0.3-3.1,0.4c-6.6,0-13.1,0-19.7,0C15.4,50.3,15.1,50.3,14.8,50.3z
		 M29.8,41.8c1.1,0,2.2,0.1,3.3,0c1.4-0.1,2.7-0.6,3.6-1.8c0.8-1,1.5-2.1,1.9-3.3c0.8-2.7,0.5-5.4-0.1-8.1c-0.3-1.6-1.1-3.1-2.1-4.3
		c-0.6-0.7-1.4-1.5-2.3-1.6c-1.4-0.3-2.9-0.1-4.3-0.1C29.8,29.1,29.8,35.4,29.8,41.8z"/>
</g>
</svg>
