<?xml version="1.0" encoding="utf-8"?>
<!-- Generator: Adobe Illustrator 23.0.3, SVG Export Plug-In . SVG Version: 6.00 Build 0)  -->
<svg version="1.1" baseProfile="tiny" id="Capa_2" xmlns="http://www.w3.org/2000/svg" xmlns:xlink="http://www.w3.org/1999/xlink"
	 x="0px" y="0px" viewBox="0 0 64.9 64.9" xml:space="preserve">
<g>
	<path fill="#8A90AE" d="M32.5,0.8C32.5,0.8,32.5,0.8,32.5,0.8c0,0.2,0,0.4,0,0.6c0,7.4,0,14.9,0,22.3c0,0.1,0,0.3,0,0.4
		c0,0.1-0.1,0.2-0.2,0.2c-0.7,0.3-1.3,0.6-2,0.9c-0.9,0.4-1.9,0.8-2.8,1.3c-1.1,0.5-2.2,1-3.3,1.5c-0.9,0.4-1.8,0.8-2.7,1.2
		c-1.1,0.5-2.2,1-3.3,1.5c-0.9,0.4-1.8,0.8-2.8,1.3c-0.7,0.3-1.5,0.7-2.2,1c-0.1,0-0.1,0.1-0.2,0c0,0,0,0-0.1,0
		c0.3-0.5,0.6-0.9,0.9-1.4c1.6-2.7,3.3-5.4,4.9-8.1c1.7-2.9,3.5-5.8,5.2-8.7c1.6-2.7,3.2-5.4,4.8-8c1.2-2,2.4-3.9,3.5-5.9
		C32.4,0.9,32.5,0.8,32.5,0.8C32.5,0.8,32.5,0.8,32.5,0.8C32.5,0.8,32.5,0.8,32.5,0.8z"/>
	<path fill="#484B73" d="M51.9,33L51.9,33L51.9,33C51.9,33,51.9,33,51.9,33c-1.5,1-3.1,1.9-4.6,2.8c-4.9,2.9-9.7,5.7-14.6,8.6
		c-0.1,0-0.1,0.1-0.2,0.1c-0.1,0-0.1-0.1-0.1-0.1c0-0.1,0-0.2,0-0.3c0-6.5,0-13,0-19.5c0-0.1,0-0.2,0-0.3c0-0.1,0.1-0.1,0.2-0.1
		c0.4,0.2,0.8,0.4,1.3,0.6c1.2,0.6,2.5,1.1,3.7,1.7c1.1,0.5,2.1,1,3.2,1.4c1.1,0.5,2.1,1,3.2,1.5c0.9,0.4,1.9,0.8,2.8,1.3
		c0.9,0.4,1.9,0.8,2.8,1.3c0.7,0.3,1.4,0.7,2.2,1C51.8,32.9,51.8,33,51.9,33z"/>
	<path fill="#8A90AE" d="M32.5,64.1C32.5,64.1,32.5,64.1,32.5,64.1C32.5,64.1,32.5,64.1,32.5,64.1c-0.1,0-0.1,0-0.2-0.1
		c-2-2.8-3.9-5.5-5.9-8.3c-2-2.8-4-5.6-6-8.4c-1.9-2.7-3.9-5.4-5.8-8.2c-0.5-0.7-1-1.4-1.5-2.1c0-0.1-0.1-0.1-0.1-0.2
		c0.1,0,0.1,0.1,0.2,0.1c2.7,1.6,5.5,3.2,8.2,4.8c3.1,1.9,6.3,3.7,9.4,5.6c0.5,0.3,1.1,0.6,1.6,0.9c0.1,0,0.1,0.1,0.1,0.2
		c0,0.1,0,0.2,0,0.3c0,5,0,9.9,0,14.9C32.6,63.7,32.6,63.9,32.5,64.1z"/>
	<path fill="#7F7F7F" d="M13,33C13.1,33,13.1,33,13,33C13.1,33,13.1,33,13,33C13,33.1,13,33.1,13,33C13,33,13,33,13,33
		C13,33,13,33,13,33z"/>
	<path fill="#FFFFFF" d="M32.5,0.8C32.5,0.8,32.5,0.8,32.5,0.8C32.5,0.8,32.5,0.8,32.5,0.8C32.5,0.8,32.5,0.8,32.5,0.8z"/>
	<path fill="#64688B" d="M13.1,33.1C13.1,33,13.1,33,13.1,33.1c1-0.5,2-0.9,3-1.4c1.3-0.6,2.6-1.2,3.9-1.8c1-0.5,2-0.9,3-1.4
		c1.4-0.7,2.9-1.3,4.3-2c1-0.4,2-0.9,3-1.3c0.7-0.3,1.4-0.6,2.1-1c0.1,0,0.1-0.1,0.2-0.1c0,0,0,0,0,0.1c0,0.1,0,0.1,0,0.2
		c0,6.6,0,13.2,0,19.8c0,0.1,0,0.2,0,0.3c-0.1,0.1-0.1,0-0.2,0c-0.3-0.2-0.6-0.3-0.8-0.5c-6.1-3.6-12.2-7.2-18.3-10.8
		C13.2,33.1,13.1,33.1,13.1,33.1z"/>
	<path fill="#64688B" d="M51.8,36.8C51.8,36.8,51.8,36.8,51.8,36.8c0,0.1,0,0.1-0.1,0.2C46,45.1,40.2,53.3,34.3,61.5
		c-0.6,0.9-1.2,1.7-1.8,2.6c0,0,0,0,0-0.1c0-0.1,0-0.1,0-0.2c0-5.1,0-10.2,0-15.3c0-0.1,0-0.2,0-0.3c1.3-0.8,2.6-1.6,3.9-2.3
		c5.1-3,10.2-6,15.3-9C51.7,36.8,51.8,36.8,51.8,36.8z"/>
	<path fill="#64688B" d="M32.5,24.2C32.5,24.2,32.5,24.2,32.5,24.2c0-0.1,0-0.2,0-0.2c0-7.6,0-15.3,0-22.9c0-0.1,0-0.2,0-0.2
		c6.4,10.6,12.8,21.2,19.2,31.8c0.1,0.1,0.2,0.2,0.2,0.3c-0.4-0.2-0.8-0.4-1.3-0.6c-0.5-0.2-1-0.5-1.5-0.7c-0.3-0.1-0.6-0.3-1-0.4
		c-0.5-0.2-1.1-0.5-1.6-0.7c-0.3-0.1-0.6-0.3-0.9-0.4c-0.7-0.3-1.4-0.6-2.1-0.9c-0.4-0.2-0.7-0.3-1.1-0.5c-0.5-0.2-1-0.5-1.5-0.7
		c-0.3-0.1-0.6-0.3-0.9-0.4c-0.7-0.3-1.4-0.6-2.1-0.9c-0.4-0.2-0.7-0.3-1.1-0.5c-0.5-0.2-1-0.5-1.5-0.7c-0.3-0.2-0.7-0.3-1-0.5
		C33.8,24.8,33.2,24.5,32.5,24.2C32.5,24.2,32.5,24.2,32.5,24.2z"/>
</g>
</svg>
