<?xml version="1.0" encoding="utf-8"?>
<!-- Generator: Adobe Illustrator 23.0.3, SVG Export Plug-In . SVG Version: 6.00 Build 0)  -->
<svg version="1.1" baseProfile="tiny" id="Capa_1" xmlns="http://www.w3.org/2000/svg" xmlns:xlink="http://www.w3.org/1999/xlink"
	 x="0px" y="0px" viewBox="0 0 512 512" xml:space="preserve">
<circle fill="#0099DE" cx="256" cy="253" r="248"/>
<path fill="#FFFFFF" d="M287.2,418c-43.9,0-83.4-17.4-109-49.6c-15.5-17.9-26-42-30.4-71.8H117v-29.4h27c0-2.4,0-5.4,0-7.7
	c0-5.8,0.5-12.1,1-17.3h-28v-29.9h32.3c5.8-29.4,18.8-54.5,36.2-72.8c26-28.9,61.2-45.3,104.1-45.3c28.9,0,53.1,7.2,69,15
	l-12.1,44.8c-12.5-6.8-32.3-13-54-13c-24.1,0-45.3,8.6-61.3,26.5c-10.1,10.6-17.4,26.5-21.2,44.8h126.3v29.9H204.3
	c-1,5.3-1,11.1-1,16.9c0,2.8,0,5.3,0,8.2h133.1v29.4H208.6c3.4,20.7,10.6,36.2,20.7,47.2c16.4,17.8,39.5,26.1,64.6,26.1
	c23.6,0,45.8-8.2,56.8-14l10.1,42.9C345.1,408.3,318.1,418,287.2,418L287.2,418z"/>
</svg>
