<?xml version="1.0" encoding="utf-8"?>
<!-- Generator: Adobe Illustrator 23.0.3, SVG Export Plug-In . SVG Version: 6.00 Build 0)  -->
<svg version="1.1" baseProfile="tiny" id="Capa_3" xmlns="http://www.w3.org/2000/svg" xmlns:xlink="http://www.w3.org/1999/xlink"
	 x="0px" y="0px" viewBox="0 0 64.9 64.9" xml:space="preserve">
<path fill="#005DA0" d="M32.4,64.1C14.8,64.1,0.7,49.9,0.8,32.4C0.8,14.8,15,0.7,32.5,0.8c17.6,0.1,31.7,14.3,31.6,31.8
	C64,50.1,49.9,64.2,32.4,64.1z M61.1,32.5c0-15.9-12.8-28.7-28.7-28.7C16.6,3.8,3.8,16.6,3.8,32.4c0,15.9,12.8,28.7,28.7,28.7
	C48.3,61.1,61.1,48.3,61.1,32.5z"/>
<path fill="#005DA0" d="M56.8,32.5C56.6,46.1,45.7,57,32.3,56.8C18.8,56.7,7.9,45.6,8.1,32.2C8.3,18.7,19.2,8,32.5,8.1
	C46.1,8.2,56.8,19.1,56.8,32.5z M30.9,41.2c0-0.1,0-0.2,0-0.3c0.7-2.7,1.3-5.3,2-8c0.1-0.2,0.3-0.5,0.6-0.6c0.7-0.3,1.4-0.6,2.1-0.8
	c1.6-0.4,2.5-1.3,2.7-2.9c0.1-0.7,0.4-1.4,0.6-2.2c-1.7,0.7-3.2,1.3-4.8,1.9c1.1-4.3,2.1-8.3,3.2-12.5c-0.3,0-0.5,0-0.7,0
	c-2.8,0-5.6,0-8.4,0c-0.6,0-0.8,0.2-1,0.8c-1.4,5.2-2.8,10.4-4.2,15.6c-0.1,0.3-0.4,0.6-0.6,0.7c-0.9,0.4-1.9,0.7-2.8,1.1
	c-0.2,0.1-0.5,0.2-0.5,0.3c-0.4,1.3-0.8,2.7-1.3,4.2c1.4-0.6,2.6-1.1,4-1.6c-0.9,3.5-1.8,6.9-2.7,10.3c2,0,3.9,0,5.8,0
	c6.7,0,13.3,0,20,0c0.5,0,0.7-0.1,0.8-0.6c0.2-1,0.5-2,0.8-2.9c0.2-0.7,0.3-1.4,0.5-2.2C41.6,41.4,36.3,41.3,30.9,41.2z"/>
<path fill="#FFFFFF" d="M30.9,41.2c5.4,0.1,10.7,0.2,16.1,0.4c-0.2,0.8-0.4,1.5-0.5,2.2c-0.3,1-0.6,1.9-0.8,2.9
	c-0.1,0.5-0.3,0.6-0.8,0.6c-6.7,0-13.3,0-20,0c-1.9,0-3.8,0-5.8,0c0.9-3.5,1.8-6.8,2.7-10.3c-1.4,0.5-2.6,1-4,1.6
	c0.4-1.5,0.8-2.8,1.3-4.2c0-0.2,0.3-0.3,0.5-0.3c0.9-0.4,1.9-0.7,2.8-1.1c0.3-0.1,0.6-0.4,0.6-0.7c1.4-5.2,2.8-10.4,4.2-15.6
	c0.1-0.6,0.3-0.8,1-0.8c2.8,0,5.6,0,8.4,0c0.2,0,0.4,0,0.7,0c-1.1,4.1-2.1,8.2-3.2,12.5c1.6-0.7,3.1-1.3,4.8-1.9
	c-0.2,0.8-0.5,1.5-0.6,2.2c-0.2,1.6-1.1,2.5-2.7,2.9c-0.7,0.2-1.4,0.5-2.1,0.8c-0.2,0.1-0.5,0.4-0.6,0.6c-0.7,2.7-1.4,5.3-2,8
	C30.9,41,30.9,41.1,30.9,41.2z"/>
</svg>
