<?xml version="1.0" encoding="utf-8"?>
<!-- Generator: Adobe Illustrator 23.0.3, SVG Export Plug-In . SVG Version: 6.00 Build 0)  -->
<svg version="1.1" baseProfile="tiny" id="Capa_1" xmlns="http://www.w3.org/2000/svg" xmlns:xlink="http://www.w3.org/1999/xlink"
	 x="0px" y="0px" viewBox="0 0 512 512" xml:space="preserve">
<circle fill="#0099DE" cx="256" cy="253" r="248"/>
<g>
	<path fill="#FFFFFF" d="M206.3,413c-11,0-22,0-33,0c0-31.8,0-63.6,0-95.6c-5.8,0-11.1,0-16.5,0c0-11,0-22,0-33c5.5,0,10.9,0,16.3,0
		c0-6.8,0-13.1,0-20c-5.6,0-11,0-16.3,0c0-10.8,0-21.5,0-32.3c5.5,0,10.9,0,16.5,0c0-50.1,0-99.4,0-148.6c46.5,0,93.1,0,139.7,0
		c2.6,0.4,5.4,1,8,1.4c48.8,8.1,82.7,56.5,73.6,104.8c-8.4,44.4-45.2,74.9-90.4,74.9c-31.2,0-62.4,0-93.5,0c-1.3,0-2.6,0-4.1,0
		c0,6.8,0,13.2,0,19.9c41.8,0,83.3,0,124.9,0c0,11.1,0,21.8,0,32.9c-41.8,0-83.3,0-125.1,0C206.3,349.5,206.3,381.3,206.3,413z
		 M206.4,116.3c0,38.6,0,76.7,0,115.1c1,0.1,1.9,0.3,2.8,0.3c32.1,0,64.2,0.3,96.4-0.1c38-0.4,64.7-35.3,55.6-72
		c-6.4-25.5-29.1-43.2-56.3-43.3c-31.8-0.2-63.5,0-95.3,0C208.5,116.3,207.6,116.3,206.4,116.3z"/>
</g>
</svg>
