<?xml version="1.0" encoding="utf-8"?>
<!-- Generator: Adobe Illustrator 23.0.3, SVG Export Plug-In . SVG Version: 6.00 Build 0)  -->
<svg version="1.1" baseProfile="tiny" id="Capa_3" xmlns="http://www.w3.org/2000/svg" xmlns:xlink="http://www.w3.org/1999/xlink"
	 x="0px" y="0px" viewBox="0 0 64.9 64.9" xml:space="preserve">
<g>
	<circle fill="#FE0618" cx="32.5" cy="32.5" r="31.8"/>
	<path fill="#FFFFFF" d="M11.6,13.6C17.5,28.4,23.3,43,29.1,57.7c8.2-10,16.2-19.8,23.8-29.1c-2.5-2.7-4.8-5.4-7.3-7.9
		c-0.6-0.6-1.5-0.9-2.3-1.1c-5.7-1.1-11.5-2.2-17.2-3.2C21.4,15.4,16.7,14.5,11.6,13.6z"/>
	<path fill="#FE0618" d="M28.7,50.6C24.6,40.3,20.6,30,16.5,19.7c0.1-0.1,0.2-0.2,0.3-0.3c0.4,0.3,0.8,0.6,1.2,0.9
		c4.1,3.4,8.2,6.7,12.3,10.1c0.8,0.7,1.1,1.3,0.9,2.4c-0.8,5.9-1.5,11.8-2.2,17.7C28.9,50.5,28.8,50.6,28.7,50.6z"/>
	<path fill="#FE0517" d="M31.5,50.7c0.7-5.8,1.4-11.6,2.1-17.3c0-0.4,0.4-1,0.8-1c4.7-0.9,9.4-1.7,14.1-2.5c0.1,0.1,0.2,0.3,0.2,0.4
		C43.1,37.1,37.4,44,31.8,50.8C31.7,50.8,31.6,50.7,31.5,50.7z"/>
	<path fill="#FE0618" d="M18.1,17c7.8,1.5,15.5,2.9,23.6,4.4c-3.2,2.7-6.2,5.2-9.3,7.8c-4.9-4-9.7-8-14.5-11.9
		C18,17.3,18.1,17.1,18.1,17z"/>
	<path fill="#FE091A" d="M44.2,22.5c1.7,1.6,3.3,3.2,5.2,4.9c-4.7,0.8-9,1.6-13.4,2.4c0-0.1-0.1-0.2-0.1-0.3
		C38.6,27.2,41.3,24.9,44.2,22.5z"/>
</g>
</svg>
