<?xml version="1.0" encoding="utf-8"?>
<!-- Generator: Adobe Illustrator 23.0.3, SVG Export Plug-In . SVG Version: 6.00 Build 0)  -->
<svg version="1.1" baseProfile="tiny" id="Capa_3" xmlns="http://www.w3.org/2000/svg" xmlns:xlink="http://www.w3.org/1999/xlink"
	 x="0px" y="0px" viewBox="0 0 64.9 64.9" xml:space="preserve">
<g>
	<circle fill="#E84118" cx="32.5" cy="32.5" r="31.7"/>
	<g>
		<path fill="#FFFFFF" d="M28.5,40.7c0-0.2,0-0.5,0-0.7c-0.1-2.7-0.5-8.9,5-10.2c0.5-0.1,0.9-0.2,1.3-0.2l0.3,0c1.8-0.2,3-0.4,3.9-1
			c0.8-0.5,1.4-1.3,1.5-2.1c0.2-0.7,0.1-1.5-0.2-2.2c-0.1-0.3-0.4-0.6-1.3-1.1c-1.5-0.8-3.4-1.1-6-1.1l-0.2,0
			c-1.6,0-3.3,0.1-4.6,0.4c-2.8,0.7-3.7,2.9-3.9,4.5l-6.5-1c0.7-4.9,4-8.7,8.7-9.9c2.1-0.6,4.2-0.6,6.1-0.7l0.2,0
			c3.8-0.1,6.8,0.5,9.3,1.9c1.3,0.7,3.1,1.8,4.1,4.1c1,2,1.2,4.4,0.7,6.6c-0.6,2.4-2.1,4.6-4.2,6.1c-0.2,0.1-0.4,0.3-0.7,0.4
			c-1,0.6-2.2,1-3.3,1.3c-0.5,0.1-1.1,0.2-1.6,0.3c-0.4,0-0.7,0-1.1,0.2c-0.3,0.2-0.6,0.4-0.8,0.7c-0.5,0.8-0.3,1.9-0.2,2.8
			c0,0.3,0.1,0.8,0.1,1.1L28.5,40.7L28.5,40.7z"/>
	</g>
	<path fill="#FFFFFF" d="M36.4,47.1c0,2.2-1.6,4-4.4,4c-2.8,0-4.4-1.8-4.4-4c0-2.2,1.6-4,4.4-4S36.4,44.8,36.4,47.1z"/>
</g>
</svg>
