<?xml version="1.0" encoding="utf-8"?>
<!-- Generator: Adobe Illustrator 23.0.3, SVG Export Plug-In . SVG Version: 6.00 Build 0)  -->
<svg version="1.1" baseProfile="tiny" id="Capa_3" xmlns="http://www.w3.org/2000/svg" xmlns:xlink="http://www.w3.org/1999/xlink"
	 x="0px" y="0px" viewBox="0 0 64.9 64.9" xml:space="preserve">
<g>
	<circle fill="#5CA179" cx="32.2" cy="32.4" r="31.7"/>
	<polygon fill="#FFFFFF" points="28.6,29.4 28.6,21.3 17.9,21.3 17.9,14.2 47.8,14.2 47.8,21.4 37.1,21.4 37.1,29.4 	"/>
	<path fill="#FFFFFF" d="M32.6,26.2c11.2,0,17,3.1,17.7,4.1c-0.7,1-6.4,2.5-17.7,2.5s-17-1.5-17.7-2.5
		C15.6,29.2,21.4,26.2,32.6,26.2 M32.6,25.4c-10.7,0-19.3,2.2-19.3,4.9s8.6,4.9,19.3,4.9s19.3-2.2,19.3-4.9S43.3,25.4,32.6,25.4
		L32.6,25.4z"/>
	<g>
		<path fill="#FFFFFF" d="M37.1,31.9v-5.6c-1.4-0.1-2.9-0.2-4.4-0.2c-1.4,0-2.7,0-4,0.1v5.6c1.2,0,2.6,0.1,4,0.1
			C34.2,32,35.7,32,37.1,31.9z"/>
		<path fill="#FFFFFF" d="M32.6,35.2c-1.4,0-2.7,0-4-0.1V50h8.4v-15C35.6,35.1,34.1,35.2,32.6,35.2z"/>
	</g>
</g>
</svg>
