<?xml version="1.0" encoding="utf-8"?>
<!-- Generator: Adobe Illustrator 23.0.3, SVG Export Plug-In . SVG Version: 6.00 Build 0)  -->
<svg version="1.1" baseProfile="tiny" id="Capa_3" xmlns="http://www.w3.org/2000/svg" xmlns:xlink="http://www.w3.org/1999/xlink"
	 x="0px" y="0px" viewBox="0 0 64.9 64.9" xml:space="preserve">
<polygon fill="#5CA179" points="32.9,63.1 62.6,30.3 51.9,1.3 13.3,1.3 2.2,29.5 "/>
<polygon fill="#FFFFFF" points="27.8,29.2 27.8,16.3 15.1,16.3 15.1,7.8 50.7,7.8 50.7,16.4 37.9,16.4 37.9,29.2 "/>
<path fill="#FFFFFF" d="M32.6,22.1c13.3,0,20.2,3.7,21,4.9c-0.8,1.2-7.6,3-21,3s-20.2-1.8-21-3C12.4,25.7,19.3,22.1,32.6,22.1
	 M32.6,21.1c-12.7,0-22.9,2.6-22.9,5.8c0,3.2,10.2,5.8,22.9,5.8s22.9-2.6,22.9-5.8S45.3,21.1,32.6,21.1L32.6,21.1z"/>
<path fill="#FFFFFF" d="M32.6,32.8c-1.7,0-3.2,0-4.8-0.1v17.7h10V32.5C36.2,32.7,34.4,32.8,32.6,32.8z"/>
</svg>
