<?xml version="1.0" encoding="utf-8"?>
<!-- Generator: Adobe Illustrator 23.0.3, SVG Export Plug-In . SVG Version: 6.00 Build 0)  -->
<svg version="1.1" baseProfile="tiny" id="Capa_3" xmlns="http://www.w3.org/2000/svg" xmlns:xlink="http://www.w3.org/1999/xlink"
	 x="0px" y="0px" viewBox="0 0 64.9 64.9" xml:space="preserve">
<g>
	<path fill="#4D4D4D" d="M58.9,49.3H46.3V32.1L32.5,46L18.6,32.1v17.2H6H5.6c5.6,8.9,15.5,14.9,26.8,14.9s21.2-5.9,26.8-14.9H58.9z"
		/>
	<path fill="#E06B1A" d="M12,42.7V16.3l20.5,20.5l20.5-20.5v26.4h9.5c1.1-3.2,1.7-6.6,1.7-10.2C64.1,15,49.9,0.8,32.5,0.8
		S0.8,15,0.8,32.5c0,3.6,0.6,7,1.7,10.2H12z"/>
	<polygon fill="#FFFFFF" points="62.8,42.7 52.9,42.7 52.9,16.3 32.5,36.7 12,16.3 12,42.7 2.1,42.7 5.4,49.3 6,49.3 18.6,49.3 
		18.6,32.1 32.5,46 46.3,32.1 46.3,49.3 58.9,49.3 59.5,49.3 	"/>
</g>
</svg>
