<?xml version="1.0" encoding="utf-8"?>
<!-- Generator: Adobe Illustrator 23.0.3, SVG Export Plug-In . SVG Version: 6.00 Build 0)  -->
<svg version="1.1" baseProfile="tiny" id="Capa_3" xmlns="http://www.w3.org/2000/svg" xmlns:xlink="http://www.w3.org/1999/xlink"
	 x="0px" y="0px" viewBox="0 0 64.9 64.9" xml:space="preserve">
<g>
	<circle fill="#7F99EA" cx="32.5" cy="32.4" r="31.7"/>
	<path fill="#FDFDFD" d="M41.1,35.8c-1-0.3-2-0.4-2.9-0.4c-0.9,0.1-1.9-0.3-2.4-1.1l-0.3-0.4c-0.6-0.9-0.6-2,0-2.9l0.3-0.5
		c0.5-0.7,1.3-1.1,2.2-1.1c1.1,0,2.2-0.2,3.3-0.8c2.7-1.4,4.5-4.1,4.4-7.1c-0.1-4.3-3.7-7.7-8.1-7.5c-3.7,0.2-6.8,3.2-7.2,6.9
		c-0.2,2,0.4,3.8,1.4,5.3c0.6,0.9,0.6,2.1,0,3l-0.1,0.1c-0.5,0.7-1.3,1.1-2.1,1.1h-0.5c-1,0-1.9-0.6-2.3-1.5c-1.3-2.6-4-4.3-7.1-4.2
		c-4,0.1-7.3,3.4-7.4,7.4c-0.2,4.4,3.3,8,7.7,8c3,0,5.6-1.7,6.8-4.2c0.4-0.9,1.3-1.5,2.3-1.5h0.4c0.9,0,1.7,0.4,2.1,1.1l0.5,0.7
		c0.6,0.8,0.5,1.9,0,2.7c-0.9,1.4-1.3,3-1.1,4.8c0.3,3.6,3.3,6.5,6.8,6.9c4.9,0.5,8.9-3.6,8.5-8.4C46.1,39.3,44,36.7,41.1,35.8z"/>
</g>
</svg>
